<?xml version="1.0" encoding="utf-8"?>
<!-- Generator: Adobe Illustrator 24.1.2, SVG Export Plug-In . SVG Version: 6.00 Build 0)  -->
<svg version="1.1" id="Layer_1" xmlns="http://www.w3.org/2000/svg" xmlns:xlink="http://www.w3.org/1999/xlink" x="0px" y="0px"
	 viewBox="0 0 450 450" style="enable-background:new 0 0 450 450;" xml:space="preserve">
<style type="text/css">
	.st0{fill:url(#SVGID_1_);}
	.st1{fill:url(#SVGID_2_);}
	.st2{fill:url(#SVGID_3_);}
	.st3{fill:url(#SVGID_4_);}
	.st4{fill:url(#SVGID_5_);}
	.st5{fill:url(#SVGID_6_);}
	.st6{fill:url(#SVGID_7_);}
	.st7{fill:url(#SVGID_8_);}
	.st8{opacity:0.5;fill:url(#SVGID_9_);enable-background:new    ;}
	.st9{fill:url(#SVGID_10_);}
	.st10{fill:url(#SVGID_11_);}
	.st11{fill:#8A6227;}
	.st12{opacity:0.3;}
	.st13{fill:#6F8000;}
	.st14{fill:#667500;}
</style>
<g>
	<g>
		
			<linearGradient id="SVGID_1_" gradientUnits="userSpaceOnUse" x1="193.0228" y1="188.8114" x2="382.7068" y2="79.4168" gradientTransform="matrix(1 0 0 -1 0 452)">
			<stop  offset="0" style="stop-color:#BED900"/>
			<stop  offset="0.4714" style="stop-color:#BAD502"/>
			<stop  offset="0.977" style="stop-color:#AFC808"/>
			<stop  offset="1" style="stop-color:#AEC708"/>
		</linearGradient>
		<polygon class="st0" points="301.07,380.33 368.86,309.77 265.04,327.53 		"/>
		
			<linearGradient id="SVGID_2_" gradientUnits="userSpaceOnUse" x1="322.3939" y1="121.6779" x2="339.8862" y2="84.1654" gradientTransform="matrix(1 0 0 -1 0 452)">
			<stop  offset="1.984130e-03" style="stop-color:#4A521B"/>
			<stop  offset="0.106" style="stop-color:#71774C"/>
			<stop  offset="0.2214" style="stop-color:#969B7B"/>
			<stop  offset="0.3408" style="stop-color:#B7BAA4"/>
			<stop  offset="0.4623" style="stop-color:#D1D3C5"/>
			<stop  offset="0.5865" style="stop-color:#E5E6DE"/>
			<stop  offset="0.7146" style="stop-color:#F4F4F1"/>
			<stop  offset="0.849" style="stop-color:#FCFCFB"/>
			<stop  offset="1" style="stop-color:#FFFFFF"/>
		</linearGradient>
		<polygon class="st1" points="301.07,380.33 368.86,309.77 265.04,327.53 		"/>
		
			<linearGradient id="SVGID_3_" gradientUnits="userSpaceOnUse" x1="361.9238" y1="180.4192" x2="197.4045" y2="96.5877" gradientTransform="matrix(1 0 0 -1 0 452)">
			<stop  offset="0" style="stop-color:#8A9E00"/>
			<stop  offset="0.266" style="stop-color:#869A00"/>
			<stop  offset="0.5516" style="stop-color:#7B8D00"/>
			<stop  offset="0.8455" style="stop-color:#687700"/>
			<stop  offset="1" style="stop-color:#5B6900"/>
		</linearGradient>
		<polygon class="st2" points="368.86,309.77 223.74,384.63 280.48,270.44 		"/>
		
			<linearGradient id="SVGID_4_" gradientUnits="userSpaceOnUse" x1="285.507" y1="119.1212" x2="303.0012" y2="95.9058" gradientTransform="matrix(1 0 0 -1 0 452)">
			<stop  offset="1.984130e-03" style="stop-color:#6F8000"/>
			<stop  offset="0.0398" style="stop-color:#7B8A15"/>
			<stop  offset="0.1477" style="stop-color:#99A54B"/>
			<stop  offset="0.2597" style="stop-color:#B5BD7B"/>
			<stop  offset="0.3733" style="stop-color:#CBD2A4"/>
			<stop  offset="0.4888" style="stop-color:#DEE2C5"/>
			<stop  offset="0.6069" style="stop-color:#EDEFDE"/>
			<stop  offset="0.7287" style="stop-color:#F7F8F1"/>
			<stop  offset="0.8564" style="stop-color:#FDFDFB"/>
			<stop  offset="1" style="stop-color:#FFFFFF"/>
		</linearGradient>
		<polygon class="st3" points="368.86,309.77 223.74,384.63 280.48,270.44 		"/>
		
			<linearGradient id="SVGID_5_" gradientUnits="userSpaceOnUse" x1="31.6687" y1="238.615" x2="107.24" y2="238.615" gradientTransform="matrix(1 0 0 -1 0 452)">
			<stop  offset="0" style="stop-color:#D4C477"/>
			<stop  offset="0.3419" style="stop-color:#D3C273"/>
			<stop  offset="0.7085" style="stop-color:#D0BB66"/>
			<stop  offset="1" style="stop-color:#CCB356"/>
		</linearGradient>
		<polygon class="st4" points="87.15,173.04 31.67,237.39 107.24,253.73 		"/>
		
			<linearGradient id="SVGID_6_" gradientUnits="userSpaceOnUse" x1="77.1028" y1="231.0259" x2="49.6321" y2="255.4921" gradientTransform="matrix(1 0 0 -1 0 452)">
			<stop  offset="1.984130e-03" style="stop-color:#AB8D48"/>
			<stop  offset="0.076" style="stop-color:#BCA46D"/>
			<stop  offset="0.1677" style="stop-color:#CEBC94"/>
			<stop  offset="0.2662" style="stop-color:#DDD1B5"/>
			<stop  offset="0.3713" style="stop-color:#E9E2D0"/>
			<stop  offset="0.4852" style="stop-color:#F3EFE5"/>
			<stop  offset="0.6124" style="stop-color:#FAF8F4"/>
			<stop  offset="0.7634" style="stop-color:#FEFDFC"/>
			<stop  offset="1" style="stop-color:#FFFFFF"/>
		</linearGradient>
		<polygon class="st5" points="87.15,173.04 31.67,237.39 107.24,253.73 		"/>
		
			<linearGradient id="SVGID_7_" gradientUnits="userSpaceOnUse" x1="94.6657" y1="373.6276" x2="376.1541" y2="147.064" gradientTransform="matrix(1 0 0 -1 0 452)">
			<stop  offset="0" style="stop-color:#BED900"/>
			<stop  offset="0.4714" style="stop-color:#BAD502"/>
			<stop  offset="0.977" style="stop-color:#AFC808"/>
			<stop  offset="1" style="stop-color:#AEC708"/>
		</linearGradient>
		<polygon class="st6" points="223.74,384.63 397.96,257.97 331.41,53 116.07,53 49.53,257.97 		"/>
		<g>
			
				<linearGradient id="SVGID_8_" gradientUnits="userSpaceOnUse" x1="237.9635" y1="155.1768" x2="239.3368" y2="137.3231" gradientTransform="matrix(1 0 0 -1 0 452)">
				<stop  offset="1.984130e-03" style="stop-color:#6F8000"/>
				<stop  offset="0.0398" style="stop-color:#7B8A15"/>
				<stop  offset="0.1477" style="stop-color:#99A54B"/>
				<stop  offset="0.2597" style="stop-color:#B5BD7B"/>
				<stop  offset="0.3733" style="stop-color:#CBD2A4"/>
				<stop  offset="0.4888" style="stop-color:#DEE2C5"/>
				<stop  offset="0.6069" style="stop-color:#EDEFDE"/>
				<stop  offset="0.7287" style="stop-color:#F7F8F1"/>
				<stop  offset="0.8564" style="stop-color:#FDFDFB"/>
				<stop  offset="1" style="stop-color:#FFFFFF"/>
			</linearGradient>
			<polygon class="st7" points="139.63,323.48 329.44,307.78 361.42,284.53 114.19,304.98 			"/>
			
				<linearGradient id="SVGID_9_" gradientUnits="userSpaceOnUse" x1="219.1487" y1="228.3125" x2="218.159" y2="240.3853" gradientTransform="matrix(1 0 0 -1 0 452)">
				<stop  offset="1.984130e-03" style="stop-color:#6F8000"/>
				<stop  offset="0.0398" style="stop-color:#7B8A15"/>
				<stop  offset="0.1477" style="stop-color:#99A54B"/>
				<stop  offset="0.2597" style="stop-color:#B5BD7B"/>
				<stop  offset="0.3733" style="stop-color:#CBD2A4"/>
				<stop  offset="0.4888" style="stop-color:#DEE2C5"/>
				<stop  offset="0.6069" style="stop-color:#EDEFDE"/>
				<stop  offset="0.7287" style="stop-color:#F7F8F1"/>
				<stop  offset="0.8564" style="stop-color:#FDFDFB"/>
				<stop  offset="1" style="stop-color:#FFFFFF"/>
			</linearGradient>
			<polygon class="st8" points="60.33,224.65 55.75,238.77 382.75,211.1 378.41,197.74 			"/>
			
				<radialGradient id="SVGID_10_" cx="226.2616" cy="184.7329" r="90.608" gradientTransform="matrix(0.9 0 0 -0.9007 20.1011 427.3458)" gradientUnits="userSpaceOnUse">
				<stop  offset="0.7441" style="stop-color:#6F8000"/>
				<stop  offset="0.7537" style="stop-color:#7B8A15"/>
				<stop  offset="0.7814" style="stop-color:#99A54B"/>
				<stop  offset="0.8102" style="stop-color:#B5BD7B"/>
				<stop  offset="0.8393" style="stop-color:#CBD2A4"/>
				<stop  offset="0.8689" style="stop-color:#DEE2C5"/>
				<stop  offset="0.8992" style="stop-color:#EDEFDE"/>
				<stop  offset="0.9304" style="stop-color:#F7F8F1"/>
				<stop  offset="0.9632" style="stop-color:#FDFDFB"/>
				<stop  offset="1" style="stop-color:#FFFFFF"/>
			</radialGradient>
			<ellipse class="st9" cx="223.74" cy="260.96" rx="81.55" ry="81.61"/>
		</g>
		
			<linearGradient id="SVGID_11_" gradientUnits="userSpaceOnUse" x1="31.6687" y1="193.7888" x2="409.1732" y2="193.7888" gradientTransform="matrix(1 0 0 -1 0 452)">
			<stop  offset="0" style="stop-color:#FFFABA"/>
			<stop  offset="0.396" style="stop-color:#FFF7B6"/>
			<stop  offset="0.8208" style="stop-color:#FFF0A9"/>
			<stop  offset="1" style="stop-color:#FFEBA1"/>
		</linearGradient>
		<path class="st10" d="M420.37,204.51L277.08,215.3c-12.55-15.62-31.78-25.62-53.35-25.62c-25.36,0-47.45,13.84-59.29,34.33
			L31.67,237.39l27.74,75.56l113.11-9.35c12.55,14.16,30.81,23.15,51.21,23.15c24.22,0,45.47-12.63,57.64-31.63l121.27-9.16
			L420.37,204.51z"/>
		<path class="st11" d="M223.74,195.84c-34.41,0-62.32,27.92-62.32,62.36s27.9,62.36,62.32,62.36s62.32-27.92,62.32-62.36
			S258.16,195.84,223.74,195.84z M223.74,315.77c-31.78,0-57.53-25.78-57.53-57.58s25.76-57.58,57.53-57.58s57.53,25.78,57.53,57.58
			S255.51,315.77,223.74,315.77z"/>
		<g>
			<g class="st12">
				<path class="st11" d="M181.25,254.95c9.57,6.82,19.14,13.74,27.88,21.62c6.14,5.53,12.5,11.89,16.39,19.41
					c4.96-20.9-15.9-44.09-55.36-52.32c0.1,53.38,27.73,60.05,52.17,55.13c-3.22-8.36-9.96-15.59-16.05-21.73
					C198.43,269.14,189.85,262,181.25,254.95z"/>
				<path class="st11" d="M234.47,230.25c-5.26,15.58-9.42,32.31-4.95,48.43c22.45-4.78,27.35-33.98,15.17-70.39
					c-36.63,20.73-32.95,51.17-19.23,68.16C223.26,260.6,228.29,244.93,234.47,230.25z"/>
				<path class="st11" d="M228.67,292.2c4.06-4.04,9.43-6.85,14.52-9.2c7.72-3.55,15.81-6.21,23.88-8.81
					c-7.46,3-14.92,6.08-22.02,9.87c-5.19,2.79-10.98,6.13-14.77,10.89c15.36,8.45,35.27,9.76,46.63-25.99
					C248.77,266.14,229.87,277.19,228.67,292.2z"/>
			</g>
			<path class="st13" d="M206.69,277.23c6.1,6.14,12.83,13.37,16.05,21.73c-24.44,4.92-52.07-1.75-52.17-55.13
				c39.46,8.22,60.32,31.41,55.36,52.32c-3.89-7.52-10.25-13.86-16.39-19.41c-8.74-7.88-18.31-14.8-27.88-21.62
				C190.27,262.17,198.85,269.32,206.69,277.23z M234.88,230.42c-5.26,15.58-9.42,32.31-4.95,48.43
				c22.45-4.78,27.35-33.98,15.17-70.39c-36.63,20.73-32.95,51.17-19.23,68.16C223.67,260.77,228.7,245.1,234.88,230.42z
				 M229.08,292.37c4.06-4.04,9.43-6.85,14.52-9.2c7.72-3.55,15.81-6.21,23.88-8.81c-7.46,3-14.92,6.08-22.02,9.87
				c-5.19,2.79-10.98,6.13-14.77,10.89c15.36,8.45,35.27,9.76,46.63-25.99C249.18,266.3,230.29,277.36,229.08,292.37z"/>
		</g>
		<g>
			<path class="st13" d="M64.98,299.72l-2.92-39.47l-6.58,0.49l-0.39-5.4c1.83-0.35,3.55-1.18,5.14-2.5s2.69-2.84,3.29-4.58
				l5.4-0.39l3.81,51.28L64.98,299.72z"/>
			<path class="st13" d="M103.11,285.12c0.26,3.41-0.73,6.39-2.95,8.93c-2.23,2.56-5,3.96-8.36,4.2c-3.41,0.24-6.39-0.72-8.96-2.94
				c-2.56-2.2-3.97-5-4.21-8.39l-2.08-27.97c-0.26-3.41,0.73-6.39,2.95-8.96s5.02-3.97,8.4-4.23c3.41-0.24,6.39,0.73,8.93,2.95
				c2.56,2.23,3.94,5.03,4.2,8.41L103.11,285.12z M93.01,257.59c-0.1-1.22-0.61-2.24-1.54-3.04c-0.94-0.82-2.01-1.17-3.25-1.07
				c-1.22,0.1-2.24,0.61-3.03,1.54c-0.79,0.94-1.14,2.01-1.05,3.25l2.08,28.01c0.1,1.22,0.6,2.24,1.52,3.06
				c0.92,0.82,2,1.17,3.22,1.09c1.22-0.1,2.24-0.61,3.04-1.55c0.8-0.94,1.17-2.01,1.07-3.25L93.01,257.59z"/>
			<path class="st13" d="M134.25,282.81c0.26,3.41-0.73,6.39-2.95,8.93c-2.23,2.56-5,3.96-8.36,4.2c-3.41,0.24-6.39-0.72-8.96-2.94
				c-2.56-2.2-3.97-5-4.21-8.39l-2.08-27.97c-0.24-3.41,0.73-6.39,2.95-8.96c2.22-2.57,5.02-3.97,8.4-4.23
				c3.41-0.24,6.39,0.73,8.93,2.95c2.56,2.23,3.94,5.03,4.2,8.41L134.25,282.81z M124.15,255.28c-0.1-1.22-0.61-2.24-1.54-3.04
				c-0.94-0.82-2.01-1.17-3.25-1.07c-1.22,0.1-2.24,0.61-3.03,1.54c-0.79,0.94-1.14,2.01-1.05,3.25l2.08,28.01
				c0.1,1.22,0.6,2.24,1.52,3.06c0.92,0.82,2,1.17,3.22,1.09c1.22-0.1,2.24-0.61,3.04-1.55c0.8-0.94,1.17-2.01,1.07-3.25
				L124.15,255.28z"/>
			<path class="st13" d="M145.72,273.9c0.08,1.06-0.24,2-0.95,2.83c-0.71,0.82-1.6,1.26-2.66,1.35c-1.07,0.08-2.03-0.23-2.84-0.94
				c-0.82-0.71-1.26-1.59-1.35-2.65l-0.67-8.9c-0.08-1.07,0.23-2.03,0.94-2.84c0.71-0.82,1.59-1.26,2.68-1.35
				c1.07-0.08,2.03,0.24,2.84,0.95c0.82,0.72,1.26,1.6,1.35,2.66L145.72,273.9z M140.32,274.25c0.03,0.39,0.19,0.72,0.49,0.98
				c0.3,0.26,0.64,0.37,1.03,0.34c0.39-0.03,0.72-0.19,0.98-0.49c0.26-0.3,0.37-0.64,0.34-1.03l-0.67-8.9
				c-0.03-0.39-0.19-0.72-0.49-0.98c-0.29-0.24-0.64-0.37-1.03-0.34c-0.39,0.03-0.72,0.19-0.98,0.49c-0.26,0.3-0.37,0.64-0.34,1.03
				L140.32,274.25z M143.67,294.41l-2.76,0.2l13.46-34.16l2.73-0.2L143.67,294.41z M155.9,276.37c1.07-0.08,2.03,0.23,2.83,0.95
				c0.82,0.72,1.25,1.6,1.33,2.66l0.65,8.9c0.08,1.07-0.23,2.01-0.94,2.81s-1.59,1.25-2.65,1.32c-1.07,0.08-2.03-0.23-2.84-0.92
				c-0.82-0.69-1.26-1.58-1.35-2.64l-0.67-8.9c-0.08-1.07,0.23-2.03,0.94-2.84C153.93,276.9,154.83,276.45,155.9,276.37z
				 M157.53,280.12c-0.03-0.39-0.19-0.72-0.49-0.98c-0.3-0.26-0.64-0.37-1.03-0.33c-0.39,0.03-0.72,0.19-0.98,0.48
				c-0.26,0.3-0.37,0.64-0.34,1.03l0.67,8.9c0.03,0.39,0.19,0.72,0.49,0.98c0.3,0.26,0.64,0.37,1.03,0.34
				c0.39-0.03,0.72-0.19,0.98-0.49c0.26-0.3,0.37-0.64,0.34-1.03L157.53,280.12z"/>
		</g>
		<g>
			<path class="st13" d="M310.29,279.02l-3.81-51.28l11.57-0.86c3.04-0.23,5.86,0.38,8.43,1.81c2.2,1.21,3.86,3.21,4.96,6.01
				c0.6,1.5,0.98,3.29,1.14,5.38c0.26,3.44-0.46,6.25-2.12,8.47c-0.71,0.94-1.55,1.67-2.56,2.2c1.77,0.53,3.32,1.71,4.66,3.56
				c0.88,1.25,1.6,2.9,2.13,4.95c0.27,1.05,0.45,2.23,0.56,3.53c0.24,3.25-0.16,6.05-1.22,8.4c-0.83,1.85-2.07,3.36-3.72,4.55
				c-1.88,1.35-3.78,2.09-5.71,2.24L310.29,279.02z M316.37,248.06l3.23-0.24c2.39-0.18,3.91-1.47,4.57-3.87
				c0.23-0.9,0.3-1.98,0.2-3.26c-0.16-2.13-0.8-3.7-1.92-4.72c-1.02-0.94-2.3-1.35-3.83-1.24l-3.23,0.24L316.37,248.06z
				 M318.05,270.76l3.23-0.24c2.62-0.19,4.32-1.67,5.14-4.44c0.29-0.95,0.38-2.03,0.3-3.23c-0.22-2.87-0.91-4.91-2.09-6.13
				c-1.07-1.13-2.56-1.62-4.47-1.48l-3.23,0.24L318.05,270.76z"/>
			<path class="st13" d="M350.74,276.02l-7.72,0.57l-3.81-51.24l7.72-0.57L350.74,276.02z"/>
			<path class="st13" d="M365.94,222.71c3.41-0.26,6.39,0.73,8.96,2.95c2.57,2.22,3.97,5.03,4.23,8.4l2.08,27.97
				c0.24,3.41-0.73,6.39-2.95,8.96c-2.23,2.57-5.02,3.97-8.4,4.23c-3.4,0.24-6.39-0.73-8.93-2.95c-2.54-2.23-3.94-5.03-4.2-8.4
				l-2.07-27.97c-0.26-3.4,0.73-6.39,2.95-8.96C359.81,224.37,362.59,222.95,365.94,222.71z M371.05,234.49
				c-0.1-1.22-0.6-2.23-1.52-3.03c-0.92-0.8-2-1.14-3.22-1.05c-1.22,0.1-2.24,0.6-3.06,1.52c-0.8,0.92-1.17,2-1.07,3.22l2.08,28.05
				c0.1,1.22,0.61,2.24,1.54,3.03c0.94,0.79,2.01,1.14,3.25,1.05c1.22-0.1,2.23-0.6,3.03-1.52c0.79-0.92,1.14-2,1.05-3.22
				L371.05,234.49z"/>
		</g>
		<g>
			<path class="st14" d="M127.32,131.17c3.9,0,7.01,1.24,9.34,3.7c2.15,2.35,3.22,5.36,3.22,9.01v7.73c0,3.52-1.22,6.51-3.67,9.01
				c-2.45,2.49-5.41,3.74-8.9,3.74h-4.63v20.06h-8.03v-53.25L127.32,131.17L127.32,131.17z M132.11,144c0-1.39-0.42-2.51-1.25-3.36
				c-0.84-0.86-1.94-1.28-3.33-1.28h-4.84v17.04h4.84c1.28,0,2.35-0.46,3.25-1.36c0.9-0.91,1.33-2,1.33-3.28V144z"/>
			<path class="st14" d="M158.94,131.17c4.47,0,7.76,1.24,9.85,3.7c1.85,2.15,2.76,5.15,2.76,9.01v7.73c0,3.76-1.43,6.96-4.3,9.57
				l5.94,23.24h-8.69l-4.87-20.06c-0.23,0-0.46,0-0.72,0h-4.63v20.06h-8.03v-53.25L158.94,131.17L158.94,131.17z M163.74,144
				c0-3.09-1.54-4.63-4.58-4.63h-4.84v17.04h4.84c1.28,0,2.35-0.46,3.25-1.36c0.9-0.91,1.33-2,1.33-3.28V144z"/>
			<path class="st14" d="M191.43,130.49c3.53,0,6.55,1.25,9.03,3.74c2.47,2.49,3.71,5.49,3.71,9.01v29.07
				c0,3.53-1.25,6.55-3.74,9.03c-2.49,2.47-5.49,3.72-9,3.72c-3.53,0-6.54-1.25-9-3.74c-2.46-2.49-3.7-5.5-3.7-9.01v-29.07
				c0-3.55,1.25-6.55,3.74-9.04C184.96,131.72,187.95,130.49,191.43,130.49z M195.81,143.06c0-1.28-0.45-2.35-1.33-3.25
				c-0.9-0.9-1.97-1.33-3.25-1.33c-1.28,0-2.37,0.45-3.28,1.33c-0.91,0.9-1.36,1.98-1.36,3.25v29.15c0,1.28,0.45,2.35,1.36,3.25
				c0.91,0.9,2,1.33,3.28,1.33c1.28,0,2.35-0.45,3.25-1.33c0.9-0.9,1.33-1.97,1.33-3.25V143.06z"/>
			<path class="st14" d="M236.45,171.66c0,3.51-1.24,6.51-3.7,9.01c-2.46,2.49-5.44,3.74-8.92,3.74h-12.61v-53.28h12.61
				c3.51,0,6.5,1.25,8.94,3.74c2.45,2.49,3.67,5.48,3.67,8.97V171.66z M219.25,176.47h4.84c1.28,0,2.35-0.46,3.22-1.39
				c0.87-0.92,1.32-2,1.32-3.25v-27.88c0-1.28-0.45-2.37-1.33-3.28c-0.9-0.91-1.96-1.36-3.21-1.36h-4.84V176.47z"/>
			<path class="st14" d="M256.15,185.01c-3.53,0-6.54-1.24-9-3.7c-2.46-2.46-3.7-5.45-3.7-8.97v-41.18h7.86v41.1
				c0,1.28,0.45,2.37,1.36,3.25c0.91,0.9,2,1.33,3.28,1.33c1.28,0,2.37-0.45,3.25-1.33c0.9-0.9,1.33-1.98,1.33-3.25v-41.1h8.37
				v41.18c0,3.57-1.25,6.58-3.74,9.01C262.66,183.8,259.66,185.01,256.15,185.01z"/>
			<path class="st14" d="M288.64,185.09c-3.53,0-6.55-1.24-9.03-3.72c-2.47-2.47-3.71-5.48-3.71-8.98V143.3
				c0-3.53,1.25-6.55,3.74-9.03c2.49-2.47,5.49-3.72,9-3.72c3.53,0,6.54,1.25,9,3.74s3.7,5.49,3.7,9.01v6.08h-8.32v-6.25
				c0-1.28-0.45-2.37-1.36-3.28s-2-1.36-3.28-1.36s-2.35,0.45-3.25,1.36s-1.33,2-1.33,3.28v29.15c0,1.28,0.45,2.35,1.33,3.25
				c0.9,0.9,1.97,1.35,3.25,1.35s2.36-0.45,3.28-1.35c0.91-0.9,1.36-1.97,1.36-3.25v-7.35h8.32v7.43c0,3.55-1.25,6.54-3.74,9.01
				C295.09,183.86,292.12,185.09,288.64,185.09z"/>
			<path class="st14" d="M315.39,139.24h-8.54v-8.07h25.05v8.07h-8.49v45.18h-8.03v-45.18H315.39z"/>
		</g>
		<g>
			<g>
				<path class="st14" d="M132.36,70.38h10.18c4.49,0,7.3,1.86,8.45,5.59c0.73,2.34,1.09,5.07,1.09,8.2c0,3.13-0.08,5.48-0.26,7.05
					c-0.38,3.45-1.29,5.97-2.73,7.56c-1.44,1.58-3.63,2.38-6.55,2.38h-4.23v19.89h-5.95V70.38z M146.13,84.68
					c0-3.47-0.27-5.94-0.82-7.39c-0.54-1.45-1.62-2.19-3.23-2.19h-3.76V96.2h3.62c1.69,0,2.81-0.73,3.37-2.22
					c0.56-1.48,0.83-4.25,0.83-8.32L146.13,84.68L146.13,84.68z"/>
				<path class="st14" d="M157.95,70.38h10.62c3,0,5.18,0.63,6.5,1.88c1.32,1.25,2.12,3.37,2.39,6.36c0.11,1.22,0.18,3.14,0.18,5.74
					s-0.34,4.78-1.02,6.55c-0.68,1.77-1.89,2.91-3.62,3.43c1.26,0.2,2.23,0.87,2.88,2c0.65,1.13,1.11,2.91,1.37,5.36
					c0.27,2.45,0.41,6.08,0.41,10.9c0,4.83,0.15,7.64,0.46,8.44h-5.93c-0.3-0.61-0.46-6.31-0.46-17.06c0-3.63-0.35-5.72-1.06-6.31
					c-0.71-0.58-1.78-0.88-3.22-0.88l-3.53-0.2v24.45h-5.95V70.38H157.95z M171.72,82.79c0-3.9-0.35-6.14-1.05-6.77
					c-0.69-0.61-1.71-0.92-3.03-0.92h-3.74v17.09h3.79c1.16,0,2-0.22,2.53-0.67c0.53-0.43,0.92-1.29,1.16-2.53
					c0.23-1.25,0.34-3.21,0.34-5.87V82.79z"/>
				<path class="st14" d="M185.35,70.38h15.13v4.95h-9.17v17.33h8.69v4.95h-8.69v18.47h9.28v4.95h-15.24V70.38z"/>
				<path class="st14" d="M229.05,70.38h7.45v50.64h-5.29v-20.31l0.49-18.93l-6.88,39.16h-5.38l-7.15-39.16l0.49,18.93v20.31h-5.26
					V70.38h7.42l7.24,41.63L229.05,70.38z"/>
				<path class="st14" d="M245.24,70.38h5.95v50.64h-5.95V70.38z"/>
				<path class="st14" d="M273.7,70.38h5.93v37.64c0,4.73-0.75,8.2-2.23,10.36c-1.48,2.17-4.06,3.25-7.72,3.25s-6.25-1.09-7.76-3.25
					c-1.51-2.17-2.27-5.63-2.27-10.36V70.38h5.95v37.49c0,3.37,0.14,5.4,0.42,6.06c0.27,0.67,0.57,1.18,0.87,1.56
					c0.53,0.73,1.47,1.09,2.79,1.09s2.3-0.41,2.94-1.21c0.64-0.8,0.98-2,1.02-3.6c0.05-1.59,0.07-2.88,0.07-3.89L273.7,70.38
					L273.7,70.38z"/>
				<path class="st14" d="M309.16,70.38h7.45v50.64h-5.29v-20.31l0.49-18.93l-6.88,39.16h-5.38l-7.16-39.16l0.49,18.93v20.31h-5.26
					V70.38h7.42l7.24,41.63L309.16,70.38z"/>
			</g>
		</g>
	</g>
</g>
</svg>
