<?xml version="1.0" encoding="utf-8"?>
<!-- Generator: Adobe Illustrator 24.1.2, SVG Export Plug-In . SVG Version: 6.00 Build 0)  -->
<svg version="1.1" id="Layer_1" xmlns="http://www.w3.org/2000/svg" xmlns:xlink="http://www.w3.org/1999/xlink" x="0px" y="0px"
	 viewBox="0 0 450 450" style="enable-background:new 0 0 450 450;" xml:space="preserve">
<style type="text/css">
	.st0{fill:url(#SVGID_1_);}
	.st1{fill:url(#SVGID_2_);}
	.st2{fill:url(#SVGID_3_);}
	.st3{fill:url(#SVGID_4_);}
	.st4{fill:url(#SVGID_5_);}
	.st5{opacity:0.5;fill:url(#SVGID_6_);enable-background:new    ;}
	.st6{fill:url(#SVGID_7_);}
	.st7{fill:url(#SVGID_8_);}
	.st8{fill:url(#SVGID_9_);}
	.st9{fill:url(#SVGID_10_);}
	.st10{fill:#667500;}
	.st11{fill:#8A6227;}
</style>
<g>
	<g>
		
			<linearGradient id="SVGID_1_" gradientUnits="userSpaceOnUse" x1="334.4104" y1="191.0036" x2="413.7021" y2="169.4677" gradientTransform="matrix(1 0 0 -1 0 452)">
			<stop  offset="0" style="stop-color:#8A9E00"/>
			<stop  offset="0.266" style="stop-color:#869A00"/>
			<stop  offset="0.5516" style="stop-color:#7B8D00"/>
			<stop  offset="0.8455" style="stop-color:#687700"/>
			<stop  offset="1" style="stop-color:#5B6900"/>
		</linearGradient>
		<polygon class="st0" points="337.22,206.43 423,246.57 366.58,325.06 		"/>
		<g>
			
				<linearGradient id="SVGID_2_" gradientUnits="userSpaceOnUse" x1="135.0556" y1="387.7605" x2="299.9391" y2="96.3917" gradientTransform="matrix(1 0 0 -1 0 452)">
				<stop  offset="0" style="stop-color:#FFFABA"/>
				<stop  offset="0.396" style="stop-color:#FFF7B6"/>
				<stop  offset="0.8208" style="stop-color:#FFF0A9"/>
				<stop  offset="1" style="stop-color:#FFEBA1"/>
			</linearGradient>
			<ellipse class="st1" cx="219.15" cy="212.84" rx="176.78" ry="176.91"/>
			
				<linearGradient id="SVGID_3_" gradientUnits="userSpaceOnUse" x1="139.6208" y1="379.6933" x2="295.5527" y2="104.1429" gradientTransform="matrix(1 0 0 -1 0 452)">
				<stop  offset="0" style="stop-color:#BED900"/>
				<stop  offset="0.4714" style="stop-color:#BAD502"/>
				<stop  offset="0.977" style="stop-color:#AFC808"/>
				<stop  offset="1" style="stop-color:#AEC708"/>
			</linearGradient>
			<path class="st2" d="M219.15,45.53c-92.33,0-167.18,74.91-167.18,167.31s74.85,167.31,167.18,167.31s167.18-74.91,167.18-167.31
				S311.48,45.53,219.15,45.53z M219.15,365.22c-84.11,0-152.27-68.22-152.27-152.39S135.05,60.45,219.15,60.45
				c84.11,0,152.27,68.24,152.27,152.39C371.43,297,303.25,365.22,219.15,365.22z"/>
			
				<linearGradient id="SVGID_4_" gradientUnits="userSpaceOnUse" x1="227.6907" y1="106.9708" x2="231.8417" y2="55.0826" gradientTransform="matrix(1 0 0 -1 0 452)">
				<stop  offset="1.984130e-03" style="stop-color:#AB8D48"/>
				<stop  offset="0.076" style="stop-color:#BCA46D"/>
				<stop  offset="0.1677" style="stop-color:#CEBC94"/>
				<stop  offset="0.2662" style="stop-color:#DDD1B5"/>
				<stop  offset="0.3713" style="stop-color:#E9E2D0"/>
				<stop  offset="0.4852" style="stop-color:#F3EFE5"/>
				<stop  offset="0.6124" style="stop-color:#FAF8F4"/>
				<stop  offset="0.7634" style="stop-color:#FEFDFC"/>
				<stop  offset="1" style="stop-color:#FFFFFF"/>
			</linearGradient>
			<path class="st3" d="M219.15,389.74c49.08,0,93.47-20.02,125.5-52.33l-233.91,15.12C140.67,375.83,178.28,389.74,219.15,389.74z"
				/>
			
				<linearGradient id="SVGID_5_" gradientUnits="userSpaceOnUse" x1="173.9299" y1="95.0926" x2="204.5576" y2="84.4424" gradientTransform="matrix(1 0 0 -1 0 452)">
				<stop  offset="1.984130e-03" style="stop-color:#AB8D48"/>
				<stop  offset="0.0193" style="stop-color:#AE914F"/>
				<stop  offset="0.1439" style="stop-color:#C4AE7D"/>
				<stop  offset="0.273" style="stop-color:#D6C7A5"/>
				<stop  offset="0.4049" style="stop-color:#E5DBC6"/>
				<stop  offset="0.5403" style="stop-color:#F0EBDF"/>
				<stop  offset="0.6807" style="stop-color:#F9F6F1"/>
				<stop  offset="0.8293" style="stop-color:#FDFDFC"/>
				<stop  offset="1" style="stop-color:#FFFFFF"/>
			</linearGradient>
			<path class="st4" d="M110.73,352.52c25.8,20.08,57.29,33.17,91.65,36.42l17.7-43.47L110.73,352.52z"/>
			
				<linearGradient id="SVGID_6_" gradientUnits="userSpaceOnUse" x1="224.9648" y1="178.1319" x2="221.5725" y2="214.4784" gradientTransform="matrix(1 0 0 -1 0 452)">
				<stop  offset="1.984130e-03" style="stop-color:#AB8D48"/>
				<stop  offset="0.076" style="stop-color:#BCA46D"/>
				<stop  offset="0.1677" style="stop-color:#CEBC94"/>
				<stop  offset="0.2662" style="stop-color:#DDD1B5"/>
				<stop  offset="0.3713" style="stop-color:#E9E2D0"/>
				<stop  offset="0.4852" style="stop-color:#F3EFE5"/>
				<stop  offset="0.6124" style="stop-color:#FAF8F4"/>
				<stop  offset="0.7634" style="stop-color:#FEFDFC"/>
				<stop  offset="1" style="stop-color:#FFFFFF"/>
			</linearGradient>
			<path class="st5" d="M395.92,212.84c0-2.53-0.09-5.03-0.18-7.51L44.82,242.06c2.78,16.71,7.85,32.66,14.96,47.44l331.08-34.66
				C394.15,241.36,395.92,227.3,395.92,212.84z"/>
		</g>
		
			<linearGradient id="SVGID_7_" gradientUnits="userSpaceOnUse" x1="111.639" y1="56.1494" x2="111.639" y2="96.2306" gradientTransform="matrix(1 0 0 -1 0 452)">
			<stop  offset="0" style="stop-color:#8A9E00"/>
			<stop  offset="0.266" style="stop-color:#869A00"/>
			<stop  offset="0.5516" style="stop-color:#7B8D00"/>
			<stop  offset="0.8455" style="stop-color:#687700"/>
			<stop  offset="1" style="stop-color:#5B6900"/>
		</linearGradient>
		<polygon class="st6" points="162.87,389.74 52.9,361.15 27.36,287.99 195.92,330.92 		"/>
		
			<linearGradient id="SVGID_8_" gradientUnits="userSpaceOnUse" x1="114.7575" y1="90.4202" x2="182.2147" y2="76.3967" gradientTransform="matrix(1 0 0 -1 0 452)">
			<stop  offset="0" style="stop-color:#BED900"/>
			<stop  offset="0.4714" style="stop-color:#BAD502"/>
			<stop  offset="0.977" style="stop-color:#AFC808"/>
			<stop  offset="1" style="stop-color:#AEC708"/>
		</linearGradient>
		<polygon class="st7" points="103.69,406.81 162.87,389.74 195.92,330.92 		"/>
		
			<linearGradient id="SVGID_9_" gradientUnits="userSpaceOnUse" x1="162.418" y1="104.5395" x2="162.418" y2="78.1365" gradientTransform="matrix(1 0 0 -1 0 452)">
			<stop  offset="1.984130e-03" style="stop-color:#6F8000"/>
			<stop  offset="0.0398" style="stop-color:#7B8A15"/>
			<stop  offset="0.1477" style="stop-color:#99A54B"/>
			<stop  offset="0.2597" style="stop-color:#B5BD7B"/>
			<stop  offset="0.3733" style="stop-color:#CBD2A4"/>
			<stop  offset="0.4888" style="stop-color:#DEE2C5"/>
			<stop  offset="0.6069" style="stop-color:#EDEFDE"/>
			<stop  offset="0.7287" style="stop-color:#F7F8F1"/>
			<stop  offset="0.8564" style="stop-color:#FDFDFB"/>
			<stop  offset="1" style="stop-color:#FFFFFF"/>
		</linearGradient>
		<polygon class="st8" points="164.94,386.05 195.92,330.92 128.92,386.05 		"/>
		
			<linearGradient id="SVGID_10_" gradientUnits="userSpaceOnUse" x1="40.9908" y1="189.0852" x2="382.5243" y2="118.0852" gradientTransform="matrix(1 0 0 -1 0 452)">
			<stop  offset="0" style="stop-color:#BED900"/>
			<stop  offset="0.4714" style="stop-color:#BAD502"/>
			<stop  offset="0.977" style="stop-color:#AFC808"/>
			<stop  offset="1" style="stop-color:#AEC708"/>
		</linearGradient>
		<polygon class="st9" points="27.36,287.99 423,246.57 393.74,339.13 52.9,361.15 		"/>
		<g>
			<g>
				<path class="st10" d="M97.17,330.69c-2.41,3.79-6.56,6.33-12.3,6.83c-10.07,0.88-16.73-5.61-17.56-15.23
					c-0.82-9.51,4.42-17.09,14.67-17.99c5.2-0.45,9.44,1.01,12.47,3.82l-1.53,1.72c-2.81-2.41-6.4-3.59-10.72-3.22
					c-8.29,0.72-12.91,6.89-12.15,15.45c0.74,8.55,6.3,13.9,14.64,13.16c4.47-0.38,7.7-2.2,9.77-5.08l-0.8-9.06l-10.12,0.88
					l-0.2-2.2l12.79-1.12L97.17,330.69z"/>
				<path class="st10" d="M130.55,318.3c0.78,8.96-1.58,15.43-11.49,16.3c-9.81,0.85-13.33-4.93-14.13-14.07l-1.53-17.55l2.73-0.24
					l1.5,17.35c0.72,8.33,3.54,12.69,11.2,12.01c7.75-0.68,9.67-5.58,8.96-13.77l-1.5-17.35l2.73-0.24L130.55,318.3z"/>
				<path class="st10" d="M162.79,330.17l-4.42-8.55l-16.58,1.45l-2.87,9.19l-2.87,0.26l10.56-33.29l2.9-0.26l16.16,30.97
					L162.79,330.17z M157.33,319.41l-9.02-17.39l-5.86,18.68L157.33,319.41z"/>
				<path class="st10" d="M182.5,296.08c6.43-0.57,10.53,3.22,11.06,9.14c0.45,5.28-2.07,9.26-7.13,10.46l10.19,11.54l-3.22,0.28
					l-9.75-11.32l-9.87,0.87l1.05,12.07l-2.73,0.24l-2.8-32.13L182.5,296.08z M173.57,314.82l10.22-0.89
					c4.94-0.43,7.45-3.69,7.03-8.46c-0.41-4.71-3.51-7.52-8.39-7.1l-10.22,0.89L173.57,314.82z"/>
				<path class="st10" d="M228.33,324.46l-4.42-8.55l-16.6,1.45l-2.87,9.19l-2.87,0.26l10.56-33.29l2.9-0.26l16.16,30.97
					L228.33,324.46z M222.85,313.7l-9.02-17.39l-5.86,18.68L222.85,313.7z"/>
				<path class="st10" d="M259.14,321.78l-21.6-25.9l2.4,27.57l-2.73,0.24l-2.8-32.13l3.29-0.28l21.6,25.91l-2.4-27.59l2.73-0.24
					l2.8,32.13L259.14,321.78z"/>
				<path class="st10" d="M280.55,289.85l2.6,29.83l-2.73,0.24l-2.6-29.83l-11.94,1.04l-0.2-2.29l26.62-2.31l0.2,2.29L280.55,289.85
					z"/>
				<path class="st10" d="M301.68,288l1.05,12.13l15.87-1.38l0.2,2.29l-15.87,1.38l1.15,13.13l17.32-1.5l0.2,2.29l-20.05,1.75
					l-2.8-32.12l20.05-1.75l0.2,2.29L301.68,288z"/>
				<path class="st10" d="M328.77,285.64l1.05,12.13l15.87-1.38l0.2,2.29l-15.87,1.38l1.14,13.13l17.32-1.51l0.2,2.29l-20.05,1.75
					l-2.8-32.13l20.05-1.75l0.2,2.29L328.77,285.64z"/>
				<path class="st10" d="M363.17,280.33c10.21-0.89,16.73,5.1,17.55,14.64c0.84,9.64-4.46,16.6-14.75,17.49l-10.22,0.89l-2.8-32.13
					L363.17,280.33z M365.77,310.16c8.6-0.75,12.98-6.42,12.22-14.95c-0.74-8.42-6.11-13.3-14.62-12.57l-7.5,0.65l2.4,27.52
					L365.77,310.16z"/>
			</g>
		</g>
		<g>
			<g>
				<g>
					<path class="st11" d="M179.39,122.2l0.67,7.16l-24.07,2.27l-0.67-7.16l7.55-0.71l-1.36-14.44l-7.55,0.71l-0.51-5.38
						c4.29-0.68,9.81-3.61,13.2-6.3l3.11-0.3l2.34,24.83L179.39,122.2z"/>
					<path class="st11" d="M209.58,110.44c0.94,9.88-1.41,16.81-11.98,17.8c-10.58,0.99-14.21-5.35-15.15-15.25
						s1.46-16.81,12.03-17.82C205.06,94.2,208.65,100.56,209.58,110.44z M191.37,109.82l0.43,4.6c0.53,5.62,1.96,7.87,5.21,7.57
						c3.25-0.31,4.13-2.78,3.61-8.41l-0.43-4.6c-0.53-5.62-1.86-7.84-5.11-7.52C191.83,101.77,190.84,104.21,191.37,109.82z"/>
					<path class="st11" d="M240.51,107.53c0.94,9.88-1.41,16.81-11.98,17.8s-14.21-5.35-15.15-15.25s1.46-16.81,12.03-17.82
						C235.98,91.27,239.58,97.63,240.51,107.53z M222.3,106.91l0.44,4.6c0.53,5.62,1.96,7.87,5.21,7.57
						c3.25-0.31,4.13-2.78,3.61-8.41l-0.43-4.6c-0.53-5.62-1.86-7.84-5.11-7.52C222.75,98.84,221.77,101.28,222.3,106.91z"/>
					<path class="st11" d="M254.47,107.12c0.28,3.07-1.05,5.31-4.81,5.66s-5.52-1.59-5.82-4.66c-0.3-3.12,1.08-5.37,4.84-5.72
						C252.44,102.05,254.17,104,254.47,107.12z M247.39,107.29l0.09,0.92c0.14,1.45,0.72,2.47,1.97,2.36
						c1.28-0.13,1.6-1.24,1.48-2.68l-0.09-0.92c-0.14-1.45-0.67-2.48-1.95-2.36C247.63,104.72,247.24,105.84,247.39,107.29z
						 M250.61,122.68l10.27-21.06l3.15-0.3l-10.21,21.04L250.61,122.68z M270.85,115.92c0.28,3.07-1.05,5.31-4.81,5.65
						c-3.76,0.35-5.52-1.59-5.82-4.66c-0.3-3.14,1.08-5.37,4.84-5.72C268.82,110.85,270.56,112.8,270.85,115.92z M263.76,116.09
						l0.09,0.92c0.14,1.45,0.74,2.47,1.97,2.36c1.28-0.11,1.6-1.24,1.48-2.68l-0.09-0.92c-0.14-1.45-0.67-2.48-1.95-2.36
						C264.01,113.52,263.63,114.64,263.76,116.09z"/>
				</g>
			</g>
			<g>
				<g>
					<path class="st11" d="M131.22,174.76c1.02,10.9-4.8,17.12-15.69,18.16c-10.9,1.02-17.73-3.99-18.77-14.91
						c-1.02-10.92,4.76-17.12,15.65-18.16C123.3,158.81,130.18,163.84,131.22,174.76z M107.1,175.52l0.28,2.97
						c0.41,4.36,2.92,7.17,7.43,6.74s6.49-3.66,6.08-8.02l-0.28-2.97c-0.41-4.36-2.97-7.17-7.47-6.74
						C108.63,167.93,106.68,171.17,107.1,175.52z"/>
					<path class="st11" d="M161.09,174.56l8.36,12.71l-11.5,1.08l-6.76-11.12l-3.81,0.35l1.09,11.66l-10.25,0.97l-3.01-31.95
						l19.52-1.85c7.1-0.67,11.19,3.58,11.68,8.79C166.78,168.91,165.07,172.63,161.09,174.56z M152.88,163.94l-6.73,0.64l0.55,5.89
						l6.73-0.64c1.58-0.14,2.75-1.52,2.6-3.24C155.88,164.89,154.46,163.8,152.88,163.94z"/>
					<path class="st11" d="M203.84,163.44l-9.78,0.92c-0.26-2.74-3.19-4.19-6.45-3.89c-4.87,0.45-7.07,3.44-6.63,8.08l0.28,2.97
						c0.44,4.64,3.15,7.16,8.02,6.69c3.25-0.31,5.86-2.24,5.64-4.8l-7.23,0.68l-0.61-6.5l17.02-1.6l1.68,17.83l-5.28,0.5l-1.32-3.05
						c-2.64,2.73-6.19,4.33-11.06,4.78c-10.62,0.99-16.44-4.12-17.46-15.02c-1.02-10.92,4.8-17.14,15.83-18.17
						C195.42,152.01,203.07,155.42,203.84,163.44z"/>
					<path class="st11" d="M233.49,181.2l-1.77-4.37l-11.17,1.05l-0.92,4.63l-10.48,0.99l8.63-33.04l11.91-1.12l14.65,30.84
						L233.49,181.2z M222,170.54l6.91-0.65l-4.42-11.06l-0.18,0.01L222,170.54z"/>
					<path class="st11" d="M271.01,177.67l-14.87-14.24l1.46,15.5l-9.41,0.89l-3.01-31.95l8.94-0.84l14.89,14.47l-1.48-15.75
						l9.41-0.88l3.01,31.95L271.01,177.67z"/>
					<path class="st11" d="M287.28,176.14l-3.01-31.95l10.25-0.97l3.01,31.95L287.28,176.14z"/>
					<path class="st11" d="M333.65,152.79l-9.78,0.92c-0.34-3.66-2.51-5.85-6.18-5.51c-4.36,0.41-5.75,3.58-5.34,7.95l0.28,2.97
						c0.41,4.36,2.46,7.21,6.63,6.83c4.03-0.38,5.82-2.75,5.48-6.42l9.46-0.89c0.82,8.77-4.34,14.04-14.08,14.96
						c-10.9,1.02-17.08-4.06-18.12-14.96c-1.02-10.92,4.1-17.07,14.99-18.09C326.28,139.68,332.81,143.88,333.65,152.79z"/>
				</g>
			</g>
			<g>
				<g>
					<path class="st11" d="M125.35,228.77l0.06,0.6c0.57,6.03-3.18,10.93-9.21,11.5l-7.65,0.72l0.98,10.31l-10.25,0.97l-3.01-31.95
						l17.9-1.69C120.19,218.66,124.79,222.72,125.35,228.77z M107.85,234.12l4.22-0.4c2.17-0.21,3.14-1.5,2.95-3.41l-0.04-0.37
						c-0.18-1.9-1.32-3.02-3.54-2.81l-4.22,0.4L107.85,234.12z"/>
					<path class="st11" d="M155.61,234.06l8.35,12.71l-11.5,1.08l-6.76-11.12l-3.81,0.35l1.09,11.66l-10.25,0.97l-3.01-31.95
						l19.52-1.85c7.1-0.67,11.19,3.58,11.68,8.79C161.3,228.41,159.59,232.13,155.61,234.06z M147.4,223.46l-6.73,0.64l0.55,5.89
						l6.73-0.64c1.58-0.16,2.75-1.53,2.6-3.24C150.39,224.39,148.98,223.3,147.4,223.46z"/>
					<path class="st11" d="M199.65,227.28c1.02,10.9-4.8,17.14-15.69,18.16c-10.9,1.02-17.73-4-18.77-14.91
						c-1.02-10.9,4.76-17.12,15.65-18.14C191.74,211.35,198.62,216.37,199.65,227.28z M175.53,228.06l0.28,2.97
						c0.41,4.36,2.92,7.17,7.43,6.74c4.5-0.43,6.49-3.66,6.08-8.02l-0.28-2.97c-0.41-4.36-2.97-7.17-7.47-6.74
						C177.06,220.46,175.12,223.7,175.53,228.06z"/>
					<path class="st11" d="M235.73,223.88c1.02,10.9-4.34,16.53-15.23,17.55l-13.81,1.31l-3.01-31.95l13.81-1.31
						C228.37,208.45,234.71,212.96,235.73,223.88z M216.21,234.11l3.38-0.33c4.5-0.43,6.2-3.17,5.79-7.52l-0.26-2.78
						c-0.41-4.36-2.6-6.73-7.1-6.3l-3.38,0.33L216.21,234.11z"/>
					<path class="st11" d="M258.72,238.39c-10.01,0.95-16.34-3.1-17.17-11.93l-1.8-19.08l10.25-0.97l1.79,18.94
						c0.33,3.44,2.41,5.72,6.16,5.37c3.76-0.35,5.42-3,5.1-6.43l-1.79-18.94l10.25-0.97l1.8,19.08
						C274.13,232.29,268.73,237.44,258.72,238.39z"/>
					<path class="st11" d="M310.17,214l-9.78,0.92c-0.34-3.66-2.51-5.85-6.18-5.51c-4.36,0.41-5.75,3.58-5.34,7.95l0.28,2.97
						c0.41,4.36,2.46,7.21,6.63,6.82c4.03-0.38,5.82-2.75,5.48-6.42l9.46-0.89c0.82,8.77-4.34,14.04-14.08,14.96
						c-10.9,1.04-17.08-4.06-18.12-14.96c-1.02-10.92,4.1-17.07,14.99-18.09C302.8,200.87,309.33,205.08,310.17,214z"/>
					<path class="st11" d="M333.58,206.77l2.24,23.77l-10.25,0.97l-2.24-23.77l-10.48,0.99l-0.77-8.16l31.16-2.94l0.77,8.16
						L333.58,206.77z"/>
				</g>
			</g>
		</g>
	</g>
</g>
</svg>
